<?xml version="1.0" encoding="UTF-8"?>
<!DOCTYPE svg PUBLIC "-//W3C//DTD SVG 1.1//EN" "http://www.w3.org/Graphics/SVG/1.1/DTD/svg11.dtd">
<svg version="1.1" xmlns="http://www.w3.org/2000/svg" xmlns:xlink="http://www.w3.org/1999/xlink" x="0" y="0" width="58.718" height="58.718" viewBox="0, 0, 58.718, 58.718">
  <g id="educator-black" transform="translate(-209.021, -257.641)">
    <path d="M255.18,275.201 C251.338,272.453 246.869,272.781 243.844,273.514 C243.74,272.449 243.543,271.107 243.23,269.726 C245.244,270.099 247.875,270.218 250.257,269.16 C254.95,267.076 256.892,261.226 256.892,261.226 C256.892,261.226 251.23,258.752 246.538,260.835 C244.407,261.781 242.848,263.504 241.775,265.103 C241.169,263.596 240.416,262.032 239.436,260.449 L235.188,263.08 C237.096,266.162 238.31,269.629 238.782,273.217 C239.12,275.779 239.1,278.436 238.719,280.992 L242.544,279.135 C242.602,279.107 248.341,276.375 252.274,279.187 C255.808,281.715 256.901,289.115 254.931,297.181 C253.39,303.494 250.206,308.543 247.526,308.926 C245.626,309.197 244.943,308.9 243.591,308.07 C242.526,307.416 241.199,306.602 239.189,306.162 C238.696,306.053 238.223,306.006 237.767,306.006 C235.741,306.006 234.073,306.95 232.682,307.737 C230.706,308.855 229.496,309.336 227.58,308.626 C224.847,307.611 221.341,300.044 220.919,291.808 C220.748,288.46 220.914,280.404 226.143,277.828 C229.365,276.24 232.589,277.261 234.685,278.355 C234.792,276.438 234.74,274.246 234.484,272.855 C231.556,271.846 227.812,271.435 223.935,273.346 C218.377,276.082 215.46,282.899 215.929,292.064 C216.373,300.745 219.998,311.141 225.841,313.31 C230.025,314.863 232.984,313.191 235.142,311.969 C236.524,311.187 237.343,310.754 238.118,310.926 C239.304,311.185 240.079,311.662 240.979,312.213 C242.301,313.023 243.893,314 246.519,314 C247.045,314 247.616,313.961 248.232,313.873 C254.166,313.025 258.091,305.306 259.787,298.367 C261.699,290.531 261.64,279.821 255.18,275.201" fill="#333333"/>
  </g>
</svg>
