<?xml version="1.0" encoding="UTF-8"?>
<!DOCTYPE svg PUBLIC "-//W3C//DTD SVG 1.1//EN" "http://www.w3.org/Graphics/SVG/1.1/DTD/svg11.dtd">
<svg version="1.1" xmlns="http://www.w3.org/2000/svg" xmlns:xlink="http://www.w3.org/1999/xlink" x="0" y="0" width="58.718" height="58.718" viewBox="0, 0, 58.718, 58.718">
  <g id="educator-disabled" transform="translate(-344.022, -257.641)">
    <path d="M390.18,275.201 C386.338,272.453 381.869,272.781 378.844,273.514 C378.74,272.449 378.543,271.107 378.23,269.726 C380.244,270.099 382.875,270.218 385.257,269.16 C389.95,267.076 391.892,261.226 391.892,261.226 C391.892,261.226 386.23,258.752 381.538,260.835 C379.407,261.781 377.848,263.504 376.775,265.103 C376.169,263.596 375.416,262.032 374.436,260.449 L370.188,263.08 C372.096,266.162 373.31,269.629 373.782,273.217 C374.12,275.779 374.1,278.436 373.719,280.992 L377.544,279.135 C377.602,279.107 383.341,276.375 387.274,279.187 C390.808,281.715 391.901,289.115 389.931,297.181 C388.39,303.494 385.206,308.543 382.526,308.926 C380.626,309.197 379.943,308.9 378.591,308.07 C377.526,307.416 376.199,306.602 374.189,306.162 C373.696,306.053 373.223,306.006 372.767,306.006 C370.741,306.006 369.073,306.95 367.682,307.737 C365.706,308.855 364.496,309.336 362.58,308.626 C359.847,307.611 356.341,300.044 355.919,291.808 C355.748,288.46 355.914,280.404 361.143,277.828 C364.365,276.24 367.589,277.261 369.685,278.355 C369.792,276.438 369.74,274.246 369.484,272.855 C366.556,271.846 362.812,271.435 358.935,273.346 C353.377,276.082 350.46,282.899 350.929,292.064 C351.373,300.745 354.998,311.141 360.841,313.31 C365.025,314.863 367.984,313.191 370.142,311.969 C371.524,311.187 372.343,310.754 373.118,310.926 C374.304,311.185 375.079,311.662 375.979,312.213 C377.301,313.023 378.893,314 381.519,314 C382.045,314 382.616,313.961 383.232,313.873 C389.166,313.025 393.091,305.306 394.787,298.367 C396.699,290.531 396.64,279.821 390.18,275.201" fill="#DDDDDD"/>
  </g>
</svg>
