<?xml version="1.0" encoding="UTF-8"?>
<!DOCTYPE svg PUBLIC "-//W3C//DTD SVG 1.1//EN" "http://www.w3.org/Graphics/SVG/1.1/DTD/svg11.dtd">
<svg version="1.1" xmlns="http://www.w3.org/2000/svg" xmlns:xlink="http://www.w3.org/1999/xlink" x="0" y="0" width="58.718" height="58.718" viewBox="0, 0, 58.718, 58.718">
  <g id="educator" transform="translate(-276.198, -257.641)">
    <path d="M322.8,275.201 C318.958,272.453 314.489,272.781 311.464,273.514 C311.36,272.449 311.163,271.107 310.85,269.726 C312.864,270.099 315.495,270.218 317.877,269.16 C322.57,267.076 324.512,261.226 324.512,261.226 C324.512,261.226 318.85,258.752 314.158,260.835 C312.027,261.781 310.468,263.504 309.395,265.103 C308.789,263.596 308.036,262.032 307.056,260.449 L302.808,263.08 C304.716,266.162 305.93,269.629 306.402,273.217 C306.74,275.779 306.72,278.436 306.339,280.992 L310.164,279.135 C310.222,279.107 315.961,276.375 319.894,279.187 C323.428,281.715 324.521,289.115 322.551,297.181 C321.01,303.494 317.826,308.543 315.146,308.926 C313.246,309.197 312.563,308.9 311.211,308.07 C310.146,307.416 308.819,306.602 306.809,306.162 C306.316,306.053 305.843,306.006 305.387,306.006 C303.361,306.006 301.693,306.95 300.302,307.737 C298.326,308.855 297.116,309.336 295.2,308.626 C292.467,307.611 288.961,300.044 288.539,291.808 C288.368,288.46 288.534,280.404 293.763,277.828 C296.985,276.24 300.209,277.261 302.305,278.355 C302.412,276.438 302.36,274.246 302.104,272.855 C299.176,271.846 295.432,271.435 291.555,273.346 C285.997,276.082 283.08,282.899 283.549,292.064 C283.993,300.745 287.618,311.141 293.461,313.31 C297.645,314.863 300.604,313.191 302.762,311.969 C304.144,311.187 304.963,310.754 305.738,310.926 C306.924,311.185 307.699,311.662 308.599,312.213 C309.921,313.023 311.513,314 314.139,314 C314.665,314 315.236,313.961 315.852,313.873 C321.786,313.025 325.711,305.306 327.407,298.367 C329.319,290.531 329.26,279.821 322.8,275.201" fill="#485462"/>
  </g>
</svg>
