<?xml version="1.0" encoding="UTF-8"?>
<!DOCTYPE svg PUBLIC "-//W3C//DTD SVG 1.1//EN" "http://www.w3.org/Graphics/SVG/1.1/DTD/svg11.dtd">
<svg version="1.1" xmlns="http://www.w3.org/2000/svg" xmlns:xlink="http://www.w3.org/1999/xlink" x="0" y="0" width="58.718" height="58.718" viewBox="0, 0, 58.718, 58.718">
  <g id="educator-white" transform="translate(-433.224, -257.641)">
    <path d="M479.383,275.201 C475.541,272.453 471.072,272.781 468.047,273.514 C467.943,272.449 467.746,271.107 467.433,269.726 C469.447,270.099 472.078,270.218 474.46,269.16 C479.153,267.076 481.095,261.226 481.095,261.226 C481.095,261.226 475.433,258.752 470.741,260.835 C468.61,261.781 467.051,263.504 465.978,265.103 C465.372,263.596 464.619,262.032 463.639,260.449 L459.391,263.08 C461.299,266.162 462.513,269.629 462.985,273.217 C463.323,275.779 463.303,278.436 462.922,280.992 L466.747,279.135 C466.805,279.107 472.544,276.375 476.477,279.187 C480.011,281.715 481.104,289.115 479.134,297.181 C477.593,303.494 474.409,308.543 471.729,308.926 C469.829,309.197 469.146,308.9 467.794,308.07 C466.729,307.416 465.402,306.602 463.392,306.162 C462.899,306.053 462.426,306.006 461.97,306.006 C459.944,306.006 458.276,306.95 456.885,307.737 C454.909,308.855 453.699,309.336 451.783,308.626 C449.05,307.611 445.544,300.044 445.122,291.808 C444.951,288.46 445.117,280.404 450.346,277.828 C453.568,276.24 456.792,277.261 458.888,278.355 C458.995,276.438 458.943,274.246 458.687,272.855 C455.759,271.846 452.015,271.435 448.138,273.346 C442.58,276.082 439.663,282.899 440.132,292.064 C440.576,300.745 444.201,311.141 450.044,313.31 C454.228,314.863 457.187,313.191 459.345,311.969 C460.727,311.187 461.546,310.754 462.321,310.926 C463.507,311.185 464.282,311.662 465.182,312.213 C466.504,313.023 468.096,314 470.722,314 C471.248,314 471.819,313.961 472.435,313.873 C478.369,313.025 482.294,305.306 483.99,298.367 C485.902,290.531 485.843,279.821 479.383,275.201" fill="#FFFFFF"/>
  </g>
</svg>
