<?xml version="1.0" encoding="UTF-8"?>
<!DOCTYPE svg PUBLIC "-//W3C//DTD SVG 1.1//EN" "http://www.w3.org/Graphics/SVG/1.1/DTD/svg11.dtd">
<svg version="1.1" xmlns="http://www.w3.org/2000/svg" xmlns:xlink="http://www.w3.org/1999/xlink" x="0" y="0" width="58.718" height="58.718" viewBox="0, 0, 58.718, 58.718">
  <g id="engineer-disabled" transform="translate(-349.391, -542.641)">
    <path d="M399.753,572 C399.753,568.764 401.757,566.205 404.75,564.444 C404.208,562.643 403.491,560.896 402.61,559.271 C399.239,560.151 396.517,558.838 394.215,556.536 C391.926,554.247 391.222,551.512 392.102,548.14 C390.477,547.26 388.744,546.542 386.929,546 C385.169,549.007 382,550.997 378.75,550.997 C375.514,550.997 372.331,549.007 370.571,546 C368.756,546.542 367.023,547.26 365.398,548.14 C366.278,551.512 365.574,554.234 363.285,556.536 C360.997,558.824 358.262,560.151 354.903,559.271 C354.009,560.896 353.292,562.63 352.75,564.444 C355.756,566.205 357.76,568.764 357.76,572 C357.76,575.237 355.756,578.419 352.75,580.18 C353.292,581.994 354.009,583.727 354.89,585.352 C358.262,584.472 360.983,585.176 363.272,587.465 C365.574,589.753 366.265,592.489 365.384,595.861 C367.023,596.741 368.743,597.459 370.557,598 C372.318,594.994 375.5,593.003 378.736,593.003 C381.973,593.003 385.155,594.994 386.916,598 C388.73,597.459 390.464,596.741 392.089,595.861 C391.208,592.489 391.913,589.767 394.201,587.465 C396.49,585.176 399.225,583.849 402.597,584.73 C403.477,583.091 404.195,581.358 404.736,579.557 C401.744,577.796 399.753,575.237 399.753,572 z M378.75,587.465 C370.223,587.465 363.285,580.543 363.285,572 C363.285,563.458 370.208,556.536 378.75,556.536 C387.293,556.536 394.215,563.458 394.215,572 C394.215,580.543 387.293,587.465 378.75,587.465 z" fill="#DDDDDD"/>
  </g>
</svg>
