<?xml version="1.0" encoding="UTF-8"?>
<!DOCTYPE svg PUBLIC "-//W3C//DTD SVG 1.1//EN" "http://www.w3.org/Graphics/SVG/1.1/DTD/svg11.dtd">
<svg version="1.1" xmlns="http://www.w3.org/2000/svg" xmlns:xlink="http://www.w3.org/1999/xlink" x="0" y="0" width="58.718" height="58.718" viewBox="0, 0, 58.718, 58.718">
  <g id="engineer-white" transform="translate(-431.391, -542.641)">
    <path d="M481.753,572 C481.753,568.764 483.757,566.205 486.75,564.444 C486.208,562.643 485.491,560.896 484.61,559.271 C481.239,560.151 478.517,558.838 476.215,556.536 C473.926,554.247 473.222,551.512 474.102,548.14 C472.477,547.26 470.744,546.542 468.929,546 C467.169,549.007 464,550.997 460.75,550.997 C457.514,550.997 454.331,549.007 452.571,546 C450.756,546.542 449.023,547.26 447.398,548.14 C448.278,551.512 447.574,554.234 445.285,556.536 C442.997,558.824 440.262,560.151 436.903,559.271 C436.009,560.896 435.292,562.63 434.75,564.444 C437.756,566.205 439.76,568.764 439.76,572 C439.76,575.237 437.756,578.419 434.75,580.18 C435.292,581.994 436.009,583.727 436.89,585.352 C440.262,584.472 442.983,585.176 445.272,587.465 C447.574,589.753 448.265,592.489 447.384,595.861 C449.023,596.741 450.743,597.459 452.557,598 C454.318,594.994 457.5,593.003 460.736,593.003 C463.973,593.003 467.155,594.994 468.916,598 C470.73,597.459 472.464,596.741 474.089,595.861 C473.208,592.489 473.913,589.767 476.201,587.465 C478.49,585.176 481.225,583.849 484.597,584.73 C485.477,583.091 486.195,581.358 486.736,579.557 C483.744,577.796 481.753,575.237 481.753,572 z M460.75,587.465 C452.223,587.465 445.285,580.543 445.285,572 C445.285,563.458 452.208,556.536 460.75,556.536 C469.293,556.536 476.215,563.458 476.215,572 C476.215,580.543 469.293,587.465 460.75,587.465 z" fill="#FFFFFF"/>
  </g>
</svg>
