<?xml version="1.0" encoding="UTF-8"?>
<!DOCTYPE svg PUBLIC "-//W3C//DTD SVG 1.1//EN" "http://www.w3.org/Graphics/SVG/1.1/DTD/svg11.dtd">
<svg version="1.1" xmlns="http://www.w3.org/2000/svg" xmlns:xlink="http://www.w3.org/1999/xlink" x="0" y="0" width="58.718" height="58.718" viewBox="0, 0, 58.718, 58.718">
  <g id="engineer" transform="translate(-276.641, -542.641)">
    <path d="M327.003,572 C327.003,568.764 329.008,566.205 332,564.444 C331.459,562.643 330.741,560.896 329.861,559.271 C326.489,560.151 323.767,558.838 321.465,556.536 C319.176,554.247 318.472,551.512 319.352,548.14 C317.727,547.26 315.994,546.542 314.179,546 C312.419,549.007 309.25,550.997 306,550.997 C302.764,550.997 299.581,549.007 297.821,546 C296.006,546.542 294.273,547.26 292.648,548.14 C293.528,551.512 292.824,554.234 290.536,556.536 C288.247,558.824 285.512,560.151 282.153,559.271 C281.26,560.896 280.542,562.63 280,564.444 C283.006,566.205 285.011,568.764 285.011,572 C285.011,575.237 283.006,578.419 280,580.18 C280.542,581.994 281.26,583.727 282.14,585.352 C285.512,584.472 288.234,585.176 290.522,587.465 C292.824,589.753 293.515,592.489 292.635,595.861 C294.273,596.741 295.993,597.459 297.807,598 C299.568,594.994 302.75,593.003 305.987,593.003 C309.223,593.003 312.405,594.994 314.166,598 C315.98,597.459 317.714,596.741 319.339,595.861 C318.459,592.489 319.163,589.767 321.451,587.465 C323.74,585.176 326.475,583.849 329.847,584.73 C330.727,583.091 331.445,581.358 331.987,579.557 C328.994,577.796 327.003,575.237 327.003,572 z M306,587.465 C297.473,587.465 290.536,580.543 290.536,572 C290.536,563.458 297.458,556.536 306,556.536 C314.543,556.536 321.465,563.458 321.465,572 C321.465,580.543 314.543,587.465 306,587.465 z" fill="#0088CE"/>
  </g>
</svg>
