<?xml version="1.0" encoding="UTF-8"?>
<!DOCTYPE svg PUBLIC "-//W3C//DTD SVG 1.1//EN" "http://www.w3.org/Graphics/SVG/1.1/DTD/svg11.dtd">
<svg version="1.1" xmlns="http://www.w3.org/2000/svg" xmlns:xlink="http://www.w3.org/1999/xlink" x="0" y="0" width="58.718" height="58.718" viewBox="0, 0, 58.718, 58.718">
  <g id="engineer-black" transform="translate(-209.021, -542.641)">
    <path d="M259.384,572 C259.384,568.764 261.388,566.205 264.381,564.444 C263.839,562.643 263.121,560.896 262.241,559.271 C258.869,560.151 256.147,558.838 253.845,556.536 C251.557,554.247 250.852,551.512 251.733,548.14 C250.108,547.26 248.374,546.542 246.56,546 C244.799,549.007 241.631,550.997 238.381,550.997 C235.144,550.997 231.962,549.007 230.201,546 C228.387,546.542 226.653,547.26 225.028,548.14 C225.909,551.512 225.204,554.234 222.916,556.536 C220.627,558.824 217.892,560.151 214.534,559.271 C213.64,560.896 212.922,562.63 212.381,564.444 C215.387,566.205 217.391,568.764 217.391,572 C217.391,575.237 215.387,578.419 212.381,580.18 C212.922,581.994 213.64,583.727 214.52,585.352 C217.892,584.472 220.614,585.176 222.902,587.465 C225.204,589.753 225.895,592.489 225.015,595.861 C226.653,596.741 228.373,597.459 230.188,598 C231.948,594.994 235.131,593.003 238.367,593.003 C241.603,593.003 244.786,594.994 246.546,598 C248.361,597.459 250.094,596.741 251.719,595.861 C250.839,592.489 251.543,589.767 253.832,587.465 C256.12,585.176 258.856,583.849 262.227,584.73 C263.108,583.091 263.825,581.358 264.367,579.557 C261.374,577.796 259.384,575.237 259.384,572 z M238.381,587.465 C229.854,587.465 222.916,580.543 222.916,572 C222.916,563.458 229.838,556.536 238.381,556.536 C246.923,556.536 253.845,563.458 253.845,572 C253.845,580.543 246.923,587.465 238.381,587.465 z" fill="#333333"/>
  </g>
</svg>
