<?xml version="1.0" encoding="UTF-8"?>
<!DOCTYPE svg PUBLIC "-//W3C//DTD SVG 1.1//EN" "http://www.w3.org/Graphics/SVG/1.1/DTD/svg11.dtd">
<svg version="1.1" xmlns="http://www.w3.org/2000/svg" xmlns:xlink="http://www.w3.org/1999/xlink" x="0" y="0" width="58.885" height="58.718" viewBox="0, 0, 58.885, 58.718">
  <g id="family-black" transform="translate(-208.938, -353.14)">
    <g>
      <path d="M209.144,401.47 C209.847,394.186 215.881,390.008 225.871,390.008 C227.518,390.008 229.048,390.132 230.478,390.355 C229.517,391.743 228.802,393.3 228.343,395.01 C227.565,394.945 226.744,394.91 225.871,394.91 C218.454,394.91 214.365,397.246 213.924,401.816 L213.746,404 L208.938,404 z" fill="#333333"/>
      <path d="M249.405,385.998 C264.119,385.998 267.259,393.601 267.706,398.169 L267.823,404 L263.072,404 L262.926,398.518 C262.432,393.462 257.617,390.898 249.405,390.898 C241.192,390.898 236.376,393.463 235.885,398.481 L235.755,404 L230.934,404 L231.105,398.132 C231.548,393.601 234.689,385.998 249.405,385.998" fill="#333333"/>
      <path d="M225.921,370.778 C224.701,370.778 220.721,371.129 220.721,375.647 C220.721,379.455 222.908,382.218 225.921,382.218 C228.934,382.218 231.121,379.455 231.121,375.647 C231.121,371.129 227.141,370.778 225.921,370.778 M225.921,386.998 C220.22,386.998 215.921,382.132 215.921,375.68 C215.921,369.98 220.033,365.998 225.921,365.998 C231.809,365.998 235.921,369.98 235.921,375.68 C235.921,382.132 231.622,386.998 225.921,386.998" fill="#333333"/>
      <path d="M249.421,365.758 C247.285,365.758 243.701,366.451 243.701,371.093 C243.701,375.233 246.107,378.238 249.421,378.238 C252.736,378.238 255.142,375.233 255.142,371.093 C255.142,366.451 251.558,365.758 249.421,365.758 M249.421,382.998 C243.435,382.998 238.921,377.895 238.921,371.128 C238.921,365.069 243.141,360.998 249.421,360.998 C255.701,360.998 259.921,365.069 259.921,371.128 C259.921,377.895 255.407,382.998 249.421,382.998" fill="#333333"/>
    </g>
  </g>
</svg>
