<?xml version="1.0" encoding="UTF-8"?>
<!DOCTYPE svg PUBLIC "-//W3C//DTD SVG 1.1//EN" "http://www.w3.org/Graphics/SVG/1.1/DTD/svg11.dtd">
<svg version="1.1" xmlns="http://www.w3.org/2000/svg" xmlns:xlink="http://www.w3.org/1999/xlink" x="0" y="0" width="58.885" height="58.718" viewBox="0, 0, 58.885, 58.718">
  <g id="family-disabled" transform="translate(-348.579, -353.14)">
    <g>
      <path d="M348.785,401.47 C349.488,394.186 355.522,390.008 365.513,390.008 C367.159,390.008 368.689,390.132 370.12,390.355 C369.159,391.743 368.444,393.3 367.984,395.01 C367.207,394.945 366.385,394.91 365.513,394.91 C358.095,394.91 354.007,397.246 353.565,401.816 L353.388,404 L348.579,404 z" fill="#DDDDDD"/>
      <path d="M389.047,385.998 C403.76,385.998 406.9,393.601 407.348,398.169 L407.465,404 L402.714,404 L402.568,398.518 C402.073,393.462 397.258,390.898 389.047,390.898 C380.833,390.898 376.017,393.463 375.526,398.481 L375.396,404 L370.576,404 L370.746,398.132 C371.189,393.601 374.331,385.998 389.047,385.998" fill="#DDDDDD"/>
      <path d="M365.563,370.778 C364.343,370.778 360.363,371.129 360.363,375.647 C360.363,379.455 362.55,382.218 365.563,382.218 C368.576,382.218 370.763,379.455 370.763,375.647 C370.763,371.129 366.783,370.778 365.563,370.778 M365.563,386.998 C359.862,386.998 355.563,382.132 355.563,375.68 C355.563,369.98 359.675,365.998 365.563,365.998 C371.451,365.998 375.563,369.98 375.563,375.68 C375.563,382.132 371.264,386.998 365.563,386.998" fill="#DDDDDD"/>
      <path d="M389.063,365.758 C386.927,365.758 383.343,366.451 383.343,371.093 C383.343,375.233 385.749,378.238 389.063,378.238 C392.378,378.238 394.784,375.233 394.784,371.093 C394.784,366.451 391.2,365.758 389.063,365.758 M389.063,382.998 C383.077,382.998 378.563,377.895 378.563,371.128 C378.563,365.069 382.783,360.998 389.063,360.998 C395.343,360.998 399.563,365.069 399.563,371.128 C399.563,377.895 395.049,382.998 389.063,382.998" fill="#DDDDDD"/>
    </g>
  </g>
</svg>
