<?xml version="1.0" encoding="UTF-8"?>
<!DOCTYPE svg PUBLIC "-//W3C//DTD SVG 1.1//EN" "http://www.w3.org/Graphics/SVG/1.1/DTD/svg11.dtd">
<svg version="1.1" xmlns="http://www.w3.org/2000/svg" xmlns:xlink="http://www.w3.org/1999/xlink" x="0" y="0" width="58.885" height="58.718" viewBox="0, 0, 58.885, 58.718">
  <g id="family" transform="translate(-276.115, -353.14)">
    <g>
      <path d="M276.321,401.47 C277.024,394.186 283.058,390.008 293.048,390.008 C294.695,390.008 296.225,390.132 297.655,390.355 C296.694,391.743 295.979,393.3 295.52,395.01 C294.742,394.945 293.921,394.91 293.048,394.91 C285.631,394.91 281.542,397.246 281.101,401.816 L280.923,404 L276.115,404 z" fill="#52BEDA"/>
      <path d="M316.582,385.998 C331.296,385.998 334.436,393.601 334.883,398.169 L335,404 L330.249,404 L330.103,398.518 C329.609,393.462 324.794,390.898 316.582,390.898 C308.369,390.898 303.553,393.463 303.062,398.481 L302.932,404 L298.111,404 L298.282,398.132 C298.725,393.601 301.866,385.998 316.582,385.998" fill="#52BEDA"/>
      <path d="M293.098,370.778 C291.878,370.778 287.898,371.129 287.898,375.647 C287.898,379.455 290.085,382.218 293.098,382.218 C296.111,382.218 298.298,379.455 298.298,375.647 C298.298,371.129 294.318,370.778 293.098,370.778 M293.098,386.998 C287.397,386.998 283.098,382.132 283.098,375.68 C283.098,369.98 287.21,365.998 293.098,365.998 C298.986,365.998 303.098,369.98 303.098,375.68 C303.098,382.132 298.799,386.998 293.098,386.998" fill="#52BEDA"/>
      <path d="M316.598,365.758 C314.462,365.758 310.878,366.451 310.878,371.093 C310.878,375.233 313.284,378.238 316.598,378.238 C319.913,378.238 322.319,375.233 322.319,371.093 C322.319,366.451 318.735,365.758 316.598,365.758 M316.598,382.998 C310.612,382.998 306.098,377.895 306.098,371.128 C306.098,365.069 310.318,360.998 316.598,360.998 C322.878,360.998 327.098,365.069 327.098,371.128 C327.098,377.895 322.584,382.998 316.598,382.998" fill="#52BEDA"/>
    </g>
  </g>
</svg>
