<?xml version="1.0" encoding="UTF-8"?>
<!DOCTYPE svg PUBLIC "-//W3C//DTD SVG 1.1//EN" "http://www.w3.org/Graphics/SVG/1.1/DTD/svg11.dtd">
<svg version="1.1" xmlns="http://www.w3.org/2000/svg" xmlns:xlink="http://www.w3.org/1999/xlink" x="0" y="0" width="58.885" height="58.718" viewBox="0, 0, 58.885, 58.718">
  <g id="family-white" transform="translate(-433.141, -353.14)">
    <g>
      <path d="M433.347,401.47 C434.05,394.186 440.084,390.008 450.074,390.008 C451.721,390.008 453.251,390.132 454.681,390.355 C453.72,391.743 453.005,393.3 452.546,395.01 C451.768,394.945 450.947,394.91 450.074,394.91 C442.657,394.91 438.568,397.246 438.127,401.816 L437.949,404 L433.141,404 z" fill="#FFFFFF"/>
      <path d="M473.608,385.998 C488.322,385.998 491.462,393.601 491.909,398.169 L492.026,404 L487.275,404 L487.129,398.518 C486.635,393.462 481.82,390.898 473.608,390.898 C465.395,390.898 460.579,393.463 460.088,398.481 L459.958,404 L455.137,404 L455.308,398.132 C455.751,393.601 458.892,385.998 473.608,385.998" fill="#FFFFFF"/>
      <path d="M450.124,370.778 C448.904,370.778 444.924,371.129 444.924,375.647 C444.924,379.455 447.111,382.218 450.124,382.218 C453.137,382.218 455.324,379.455 455.324,375.647 C455.324,371.129 451.344,370.778 450.124,370.778 M450.124,386.998 C444.423,386.998 440.124,382.132 440.124,375.68 C440.124,369.98 444.236,365.998 450.124,365.998 C456.012,365.998 460.124,369.98 460.124,375.68 C460.124,382.132 455.825,386.998 450.124,386.998" fill="#FFFFFF"/>
      <path d="M473.624,365.758 C471.488,365.758 467.904,366.451 467.904,371.093 C467.904,375.233 470.31,378.238 473.624,378.238 C476.939,378.238 479.345,375.233 479.345,371.093 C479.345,366.451 475.761,365.758 473.624,365.758 M473.624,382.998 C467.638,382.998 463.124,377.895 463.124,371.128 C463.124,365.069 467.344,360.998 473.624,360.998 C479.904,360.998 484.124,365.069 484.124,371.128 C484.124,377.895 479.61,382.998 473.624,382.998" fill="#FFFFFF"/>
    </g>
  </g>
</svg>
