<?xml version="1.0" encoding="UTF-8"?>
<!DOCTYPE svg PUBLIC "-//W3C//DTD SVG 1.1//EN" "http://www.w3.org/Graphics/SVG/1.1/DTD/svg11.dtd">
<svg version="1.1" xmlns="http://www.w3.org/2000/svg" xmlns:xlink="http://www.w3.org/1999/xlink" x="0" y="0" width="58.718" height="58.718" viewBox="0, 0, 58.718, 58.718">
  <g id="student-disabled" transform="translate(-349.391, -449.033)">
    <g>
      <path d="M400.924,465.409 L398.448,467.884 L389.256,458.692 L391.731,456.218 C392.011,455.937 392.388,455.783 392.791,455.783 C393.195,455.783 393.572,455.937 393.853,456.218 L400.924,463.288 C401.204,463.568 401.359,463.945 401.359,464.349 C401.359,464.753 401.204,465.129 400.924,465.409 M404.459,459.752 L397.388,452.682 C396.163,451.457 394.53,450.783 392.791,450.783 C391.053,450.783 389.421,451.457 388.195,452.681 L382.185,458.691 L398.448,474.955 L404.459,468.945 C405.684,467.721 406.359,466.088 406.359,464.349 C406.359,462.61 405.684,460.977 404.459,459.752" fill="#DDDDDD"/>
      <path d="M372.956,493.377 L362.666,496.842 L360.298,494.474 L363.764,484.185 L382.893,465.056 L379.357,461.52 L359.398,481.478 L351.141,506 L375.663,497.741 L395.62,477.783 L392.085,474.248 z" fill="#DDDDDD"/>
      <path d="M367.52,489.619 C368.008,490.107 368.648,490.351 369.288,490.351 C369.927,490.351 370.567,490.107 371.055,489.619 L389.256,471.419 L385.721,467.884 L367.52,486.084 C367.032,486.572 366.788,487.211 366.788,487.851 C366.788,488.492 367.032,489.131 367.52,489.619" fill="#DDDDDD"/>
    </g>
  </g>
</svg>
