<?xml version="1.0" encoding="UTF-8"?>
<!DOCTYPE svg PUBLIC "-//W3C//DTD SVG 1.1//EN" "http://www.w3.org/Graphics/SVG/1.1/DTD/svg11.dtd">
<svg version="1.1" xmlns="http://www.w3.org/2000/svg" xmlns:xlink="http://www.w3.org/1999/xlink" x="0" y="0" width="58.718" height="58.718" viewBox="0, 0, 58.718, 58.718">
  <g id="student-white" transform="translate(-431.391, -449.033)">
    <g>
      <path d="M482.924,465.409 L480.448,467.884 L471.256,458.692 L473.731,456.218 C474.011,455.937 474.388,455.783 474.791,455.783 C475.195,455.783 475.572,455.937 475.853,456.218 L482.924,463.288 C483.204,463.568 483.359,463.945 483.359,464.349 C483.359,464.753 483.204,465.129 482.924,465.409 M486.459,459.752 L479.388,452.682 C478.163,451.457 476.53,450.783 474.791,450.783 C473.053,450.783 471.421,451.457 470.195,452.681 L464.185,458.691 L480.448,474.955 L486.459,468.945 C487.684,467.721 488.359,466.088 488.359,464.349 C488.359,462.61 487.684,460.977 486.459,459.752" fill="#FFFFFF"/>
      <path d="M454.956,493.377 L444.666,496.842 L442.298,494.474 L445.764,484.185 L464.893,465.056 L461.357,461.52 L441.398,481.478 L433.141,506 L457.663,497.741 L477.62,477.783 L474.085,474.248 z" fill="#FFFFFF"/>
      <path d="M449.52,489.619 C450.008,490.107 450.648,490.351 451.288,490.351 C451.927,490.351 452.567,490.107 453.055,489.619 L471.256,471.419 L467.721,467.884 L449.52,486.084 C449.032,486.572 448.788,487.211 448.788,487.851 C448.788,488.492 449.032,489.131 449.52,489.619" fill="#FFFFFF"/>
    </g>
  </g>
</svg>
