<?xml version="1.0" encoding="UTF-8"?>
<!DOCTYPE svg PUBLIC "-//W3C//DTD SVG 1.1//EN" "http://www.w3.org/Graphics/SVG/1.1/DTD/svg11.dtd">
<svg version="1.1" xmlns="http://www.w3.org/2000/svg" xmlns:xlink="http://www.w3.org/1999/xlink" x="0" y="0" width="58.718" height="58.718" viewBox="0, 0, 58.718, 58.718">
  <g id="student" transform="translate(-276.641, -449.033)">
    <g>
      <path d="M328.174,465.409 L325.698,467.884 L316.506,458.692 L318.981,456.218 C319.261,455.937 319.638,455.783 320.041,455.783 C320.445,455.783 320.822,455.937 321.103,456.218 L328.174,463.288 C328.454,463.568 328.609,463.945 328.609,464.349 C328.609,464.753 328.454,465.129 328.174,465.409 M331.709,459.752 L324.638,452.682 C323.413,451.457 321.78,450.783 320.041,450.783 C318.303,450.783 316.671,451.457 315.445,452.681 L309.435,458.691 L325.698,474.955 L331.709,468.945 C332.934,467.721 333.609,466.088 333.609,464.349 C333.609,462.61 332.934,460.977 331.709,459.752" fill="#4AA504"/>
      <path d="M300.206,493.377 L289.916,496.842 L287.548,494.474 L291.014,484.185 L310.143,465.056 L306.607,461.52 L286.648,481.478 L278.391,506 L302.913,497.741 L322.87,477.783 L319.335,474.248 z" fill="#4AA504"/>
      <path d="M294.77,489.619 C295.258,490.107 295.898,490.351 296.538,490.351 C297.177,490.351 297.817,490.107 298.305,489.619 L316.506,471.419 L312.971,467.884 L294.77,486.084 C294.282,486.572 294.038,487.211 294.038,487.851 C294.038,488.492 294.282,489.131 294.77,489.619" fill="#4AA504"/>
    </g>
  </g>
</svg>
