<?xml version="1.0" encoding="UTF-8"?>
<!DOCTYPE svg PUBLIC "-//W3C//DTD SVG 1.1//EN" "http://www.w3.org/Graphics/SVG/1.1/DTD/svg11.dtd">
<svg version="1.1" xmlns="http://www.w3.org/2000/svg" xmlns:xlink="http://www.w3.org/1999/xlink" x="0" y="0" width="58.718" height="58.718" viewBox="0, 0, 58.718, 58.718">
  <g id="student-black" transform="translate(-209.021, -449.033)">
    <g>
      <path d="M260.555,465.409 L258.079,467.884 L248.887,458.692 L251.362,456.218 C251.642,455.937 252.019,455.783 252.422,455.783 C252.826,455.783 253.203,455.937 253.484,456.218 L260.555,463.288 C260.835,463.568 260.99,463.945 260.99,464.349 C260.99,464.753 260.835,465.129 260.555,465.409 M264.09,459.752 L257.019,452.682 C255.794,451.457 254.161,450.783 252.422,450.783 C250.684,450.783 249.052,451.457 247.826,452.681 L241.816,458.691 L258.079,474.955 L264.09,468.945 C265.315,467.721 265.99,466.088 265.99,464.349 C265.99,462.61 265.315,460.977 264.09,459.752" fill="#333333"/>
      <path d="M232.587,493.377 L222.297,496.842 L219.929,494.474 L223.395,484.185 L242.524,465.056 L238.988,461.52 L219.029,481.478 L210.772,506 L235.294,497.741 L255.251,477.783 L251.716,474.248 z" fill="#333333"/>
      <path d="M227.151,489.619 C227.639,490.107 228.279,490.351 228.919,490.351 C229.558,490.351 230.198,490.107 230.686,489.619 L248.887,471.419 L245.352,467.884 L227.151,486.084 C226.663,486.572 226.419,487.211 226.419,487.851 C226.419,488.492 226.663,489.131 227.151,489.619" fill="#333333"/>
    </g>
  </g>
</svg>
