<svg xmlns="http://www.w3.org/2000/svg" width="58.718" height="58.718" viewBox="0, 0, 58.718, 58.718"><path d="M46.159 17.56c-3.842-2.748-8.311-2.42-11.336-1.687a31.403 31.403 0 0 0-.614-3.788c2.014.373 4.645.492 7.027-.566 4.693-2.084 6.635-7.934 6.635-7.934s-5.662-2.474-10.354-.391c-2.131.946-3.69 2.669-4.763 4.268a30.163 30.163 0 0 0-2.339-4.654l-4.248 2.631a25.61 25.61 0 0 1 3.594 10.137 28.161 28.161 0 0 1-.063 7.775l3.825-1.857c.058-.028 5.797-2.76 9.73.052 3.534 2.528 4.627 9.928 2.657 17.994-1.541 6.313-4.725 11.362-7.405 11.745-1.9.271-2.583-.026-3.935-.856-1.065-.654-2.392-1.468-4.402-1.908a6.555 6.555 0 0 0-1.422-.156c-2.026 0-3.694.944-5.085 1.731-1.976 1.118-3.186 1.599-5.102.889-2.733-1.015-6.239-8.582-6.661-16.818-.171-3.348-.005-11.404 5.224-13.98 3.222-1.588 6.446-.567 8.542.527.107-1.917.055-4.109-.201-5.5-2.928-1.009-6.672-1.42-10.549.491-5.558 2.736-8.475 9.553-8.006 18.718.444 8.681 4.069 19.077 9.912 21.246 4.184 1.553 7.143-.119 9.301-1.341 1.382-.782 2.201-1.215 2.976-1.043 1.186.259 1.961.736 2.861 1.287 1.322.81 2.914 1.787 5.54 1.787.526 0 1.097-.039 1.713-.127 5.934-.848 9.859-8.567 11.555-15.506 1.912-7.836 1.853-18.546-4.607-23.166" fill="#333"/></svg>