<svg xmlns="http://www.w3.org/2000/svg" width="58.718" height="58.718" viewBox="0, 0, 58.718, 58.718"><path d="M50.363 29.359c0-3.236 2.004-5.795 4.997-7.556a27.59 27.59 0 0 0-2.14-5.173c-3.372.88-6.094-.433-8.396-2.735-2.288-2.289-2.993-5.024-2.112-8.396a27.235 27.235 0 0 0-5.173-2.14c-1.761 3.007-4.929 4.997-8.179 4.997-3.237 0-6.419-1.99-8.18-4.997a27.235 27.235 0 0 0-5.173 2.14c.881 3.372.176 6.094-2.112 8.396-2.289 2.288-5.024 3.615-8.382 2.735a26.334 26.334 0 0 0-2.153 5.173c3.006 1.761 5.01 4.32 5.01 7.556 0 3.237-2.004 6.419-5.01 8.18a27.157 27.157 0 0 0 2.139 5.172c3.372-.88 6.094-.176 8.382 2.113 2.302 2.288 2.993 5.024 2.113 8.396a27.492 27.492 0 0 0 5.173 2.139c1.76-3.006 4.943-4.997 8.179-4.997 3.236 0 6.419 1.991 8.179 4.997a27.14 27.14 0 0 0 5.173-2.139c-.88-3.372-.176-6.094 2.113-8.396 2.288-2.289 5.024-3.616 8.395-2.735a27.914 27.914 0 0 0 2.14-5.173c-2.993-1.761-4.983-4.32-4.983-7.557zM29.36 44.824c-8.527 0-15.465-6.922-15.465-15.465 0-8.542 6.922-15.464 15.465-15.464 8.542 0 15.464 6.922 15.464 15.464 0 8.543-6.922 15.465-15.464 15.465z" fill="#333"/></svg>