<svg xmlns="http://www.w3.org/2000/svg" width="58.718" height="58.718" viewBox="0, 0, 58.718, 58.718"><path d="M50.362 29.359c0-3.236 2.005-5.795 4.997-7.556a27.52 27.52 0 0 0-2.139-5.173c-3.372.88-6.094-.433-8.396-2.735-2.289-2.289-2.993-5.024-2.113-8.396a27.208 27.208 0 0 0-5.173-2.14c-1.76 3.007-4.929 4.997-8.179 4.997-3.236 0-6.419-1.99-8.179-4.997a27.208 27.208 0 0 0-5.173 2.14c.88 3.372.176 6.094-2.112 8.396-2.289 2.288-5.024 3.615-8.383 2.735a26.456 26.456 0 0 0-2.153 5.173c3.006 1.761 5.011 4.32 5.011 7.556 0 3.237-2.005 6.419-5.011 8.18a27.225 27.225 0 0 0 2.14 5.172c3.372-.88 6.094-.176 8.382 2.113 2.302 2.288 2.993 5.024 2.113 8.396a27.51 27.51 0 0 0 5.172 2.139c1.761-3.006 4.943-4.997 8.18-4.997 3.236 0 6.418 1.991 8.179 4.997a27.167 27.167 0 0 0 5.173-2.139c-.88-3.372-.176-6.094 2.112-8.396 2.289-2.289 5.024-3.616 8.396-2.735a27.983 27.983 0 0 0 2.14-5.173c-2.993-1.761-4.984-4.32-4.984-7.557zM29.359 44.824c-8.527 0-15.464-6.922-15.464-15.465 0-8.542 6.922-15.464 15.464-15.464 8.543 0 15.465 6.922 15.465 15.464 0 8.543-6.922 15.465-15.465 15.465z" fill="#0088CE"/></svg>