<svg xmlns="http://www.w3.org/2000/svg" width="58.885" height="58.718" viewBox="0, 0, 58.885, 58.718"><g fill="#DDD"><path d="M.206 48.33c.703-7.284 6.737-11.462 16.728-11.462 1.646 0 3.176.124 4.607.347a14.937 14.937 0 0 0-2.136 4.655c-.777-.065-1.599-.1-2.471-.1-7.418 0-11.506 2.336-11.948 6.906l-.177 2.184H0zM40.468 32.858c14.713 0 17.853 7.603 18.301 12.171l.117 5.831h-4.751l-.146-5.482c-.495-5.056-5.31-7.62-13.521-7.62-8.214 0-13.03 2.565-13.521 7.583l-.13 5.519h-4.82l.17-5.868c.443-4.531 3.585-12.134 18.301-12.134M16.984 17.638c-1.22 0-5.2.351-5.2 4.869 0 3.808 2.187 6.571 5.2 6.571 3.013 0 5.2-2.763 5.2-6.571 0-4.518-3.98-4.869-5.2-4.869m0 16.22c-5.701 0-10-4.866-10-11.318 0-5.7 4.112-9.682 10-9.682s10 3.982 10 9.682c0 6.452-4.299 11.318-10 11.318M40.484 12.618c-2.136 0-5.72.693-5.72 5.335 0 4.14 2.406 7.145 5.72 7.145 3.315 0 5.721-3.005 5.721-7.145 0-4.642-3.584-5.335-5.721-5.335m0 17.24c-5.986 0-10.5-5.103-10.5-11.87 0-6.059 4.22-10.13 10.5-10.13s10.5 4.071 10.5 10.13c0 6.767-4.514 11.87-10.5 11.87"/></g></svg>