<svg xmlns="http://www.w3.org/2000/svg" width="58.885" height="58.718" viewBox="0, 0, 58.885, 58.718"><g fill="#333"><path d="M.206 48.33c.703-7.284 6.737-11.462 16.727-11.462 1.647 0 3.177.124 4.607.347a14.913 14.913 0 0 0-2.135 4.655 29.65 29.65 0 0 0-2.472-.1c-7.417 0-11.506 2.336-11.947 6.906l-.178 2.184H0zM40.467 32.858c14.714 0 17.854 7.603 18.301 12.171l.117 5.831h-4.751l-.146-5.482c-.494-5.056-5.309-7.62-13.521-7.62-8.213 0-13.029 2.565-13.52 7.583l-.13 5.519h-4.821l.171-5.868c.443-4.531 3.584-12.134 18.3-12.134M16.983 17.638c-1.22 0-5.2.351-5.2 4.869 0 3.808 2.187 6.571 5.2 6.571 3.013 0 5.2-2.763 5.2-6.571 0-4.518-3.98-4.869-5.2-4.869m0 16.22c-5.701 0-10-4.866-10-11.318 0-5.7 4.112-9.682 10-9.682s10 3.982 10 9.682c0 6.452-4.299 11.318-10 11.318M40.483 12.618c-2.136 0-5.72.693-5.72 5.335 0 4.14 2.406 7.145 5.72 7.145 3.315 0 5.721-3.005 5.721-7.145 0-4.642-3.584-5.335-5.721-5.335m0 17.24c-5.986 0-10.5-5.103-10.5-11.87 0-6.059 4.22-10.13 10.5-10.13s10.5 4.071 10.5 10.13c0 6.767-4.514 11.87-10.5 11.87"/></g></svg>