<svg xmlns="http://www.w3.org/2000/svg" width="58.718" height="58.718" viewBox="0, 0, 58.718, 58.718"><g fill="#333"><path d="M51.534 16.376l-2.476 2.475-9.192-9.192 2.475-2.474c.28-.281.657-.435 1.06-.435.404 0 .781.154 1.062.435l7.071 7.07c.28.28.435.657.435 1.061 0 .404-.155.78-.435 1.06m3.535-5.657l-7.071-7.07a6.456 6.456 0 0 0-4.597-1.899 6.46 6.46 0 0 0-4.596 1.898l-6.01 6.01 16.263 16.264 6.011-6.01a6.453 6.453 0 0 0 1.9-4.596 6.457 6.457 0 0 0-1.9-4.597M23.566 44.344l-10.29 3.465-2.368-2.368 3.466-10.289 19.129-19.129-3.536-3.536-19.959 19.958-8.257 24.522 24.522-8.259L46.23 28.75l-3.535-3.535z"/><path d="M18.13 40.586a2.493 2.493 0 0 0 1.768.732c.639 0 1.279-.244 1.767-.732l18.201-18.2-3.535-3.535-18.201 18.2a2.49 2.49 0 0 0-.732 1.767c0 .641.244 1.28.732 1.768"/></g></svg>