<svg baseProfile="tiny" xmlns="http://www.w3.org/2000/svg" preserveAspectRatio="xMinYMin meet" viewBox="0 0 1888 118.00000000000001" width="1888" height="118"><path d="M46.602 17.56c-3.842-2.748-8.311-2.42-11.336-1.687a31.403 31.403 0 0 0-.614-3.788c2.014.373 4.645.492 7.027-.566 4.693-2.084 6.635-7.934 6.635-7.934s-5.662-2.474-10.354-.391c-2.131.946-3.69 2.669-4.763 4.268a30.163 30.163 0 0 0-2.339-4.654L26.61 5.439a25.61 25.61 0 0 1 3.594 10.137 28.161 28.161 0 0 1-.063 7.775l3.825-1.857c.058-.028 5.797-2.76 9.73.052 3.534 2.528 4.627 9.928 2.657 17.994-1.541 6.313-4.725 11.362-7.405 11.745-1.9.271-2.583-.026-3.935-.856-1.065-.654-2.392-1.468-4.402-1.908a6.555 6.555 0 0 0-1.422-.156c-2.026 0-3.694.944-5.085 1.731-1.976 1.118-3.186 1.599-5.102.889-2.733-1.015-6.239-8.582-6.661-16.818-.171-3.348-.005-11.404 5.224-13.98 3.222-1.588 6.446-.567 8.542.527.107-1.917.055-4.109-.201-5.5-2.928-1.009-6.672-1.42-10.549.491-5.558 2.736-8.475 9.553-8.006 18.718.444 8.681 4.069 19.077 9.912 21.246 4.184 1.553 7.143-.119 9.301-1.341 1.382-.782 2.201-1.215 2.976-1.043 1.186.259 1.961.736 2.861 1.287 1.322.81 2.914 1.787 5.54 1.787.526 0 1.097-.039 1.713-.127 5.934-.848 9.859-8.567 11.555-15.506 1.912-7.836 1.853-18.546-4.607-23.166" fill="#485462"/><g transform="translate(118)"><path d="M46.159 17.56c-3.842-2.748-8.311-2.42-11.336-1.687a31.403 31.403 0 0 0-.614-3.788c2.014.373 4.645.492 7.027-.566 4.693-2.084 6.635-7.934 6.635-7.934s-5.662-2.474-10.354-.391c-2.131.946-3.69 2.669-4.763 4.268a30.163 30.163 0 0 0-2.339-4.654l-4.248 2.631a25.61 25.61 0 0 1 3.594 10.137 28.161 28.161 0 0 1-.063 7.775l3.825-1.857c.058-.028 5.797-2.76 9.73.052 3.534 2.528 4.627 9.928 2.657 17.994-1.541 6.313-4.725 11.362-7.405 11.745-1.9.271-2.583-.026-3.935-.856-1.065-.654-2.392-1.468-4.402-1.908a6.555 6.555 0 0 0-1.422-.156c-2.026 0-3.694.944-5.085 1.731-1.976 1.118-3.186 1.599-5.102.889-2.733-1.015-6.239-8.582-6.661-16.818-.171-3.348-.005-11.404 5.224-13.98 3.222-1.588 6.446-.567 8.542.527.107-1.917.055-4.109-.201-5.5-2.928-1.009-6.672-1.42-10.549.491-5.558 2.736-8.475 9.553-8.006 18.718.444 8.681 4.069 19.077 9.912 21.246 4.184 1.553 7.143-.119 9.301-1.341 1.382-.782 2.201-1.215 2.976-1.043 1.186.259 1.961.736 2.861 1.287 1.322.81 2.914 1.787 5.54 1.787.526 0 1.097-.039 1.713-.127 5.934-.848 9.859-8.567 11.555-15.506 1.912-7.836 1.853-18.546-4.607-23.166" fill="#333"/></g><g transform="translate(236)"><path d="M46.158 17.56c-3.842-2.748-8.311-2.42-11.336-1.687a31.403 31.403 0 0 0-.614-3.788c2.014.373 4.645.492 7.027-.566 4.693-2.084 6.635-7.934 6.635-7.934s-5.662-2.474-10.354-.391c-2.131.946-3.69 2.669-4.763 4.268a30.163 30.163 0 0 0-2.339-4.654l-4.248 2.631a25.61 25.61 0 0 1 3.594 10.137 28.161 28.161 0 0 1-.063 7.775l3.825-1.857c.058-.028 5.797-2.76 9.73.052 3.534 2.528 4.627 9.928 2.657 17.994-1.541 6.313-4.725 11.362-7.405 11.745-1.9.271-2.583-.026-3.935-.856-1.065-.654-2.392-1.468-4.402-1.908a6.555 6.555 0 0 0-1.422-.156c-2.026 0-3.694.944-5.085 1.731-1.976 1.118-3.186 1.599-5.102.889-2.733-1.015-6.239-8.582-6.661-16.818-.171-3.348-.005-11.404 5.224-13.98 3.222-1.588 6.446-.567 8.542.527.107-1.917.055-4.109-.201-5.5-2.928-1.009-6.672-1.42-10.549.491-5.558 2.736-8.475 9.553-8.006 18.718.444 8.681 4.069 19.077 9.912 21.246 4.184 1.553 7.143-.119 9.301-1.341 1.382-.782 2.201-1.215 2.976-1.043 1.186.259 1.961.736 2.861 1.287 1.322.81 2.914 1.787 5.54 1.787.526 0 1.097-.039 1.713-.127 5.934-.848 9.859-8.567 11.555-15.506 1.912-7.836 1.853-18.546-4.607-23.166" fill="#DDD"/></g><g transform="translate(354)"><path d="M46.159 17.56c-3.842-2.748-8.311-2.42-11.336-1.687a31.403 31.403 0 0 0-.614-3.788c2.014.373 4.645.492 7.027-.566 4.693-2.084 6.635-7.934 6.635-7.934s-5.662-2.474-10.354-.391c-2.131.946-3.69 2.669-4.763 4.268a30.163 30.163 0 0 0-2.339-4.654l-4.248 2.631a25.61 25.61 0 0 1 3.594 10.137 28.161 28.161 0 0 1-.063 7.775l3.825-1.857c.058-.028 5.797-2.76 9.73.052 3.534 2.528 4.627 9.928 2.657 17.994-1.541 6.313-4.725 11.362-7.405 11.745-1.9.271-2.583-.026-3.935-.856-1.065-.654-2.392-1.468-4.402-1.908a6.555 6.555 0 0 0-1.422-.156c-2.026 0-3.694.944-5.085 1.731-1.976 1.118-3.186 1.599-5.102.889-2.733-1.015-6.239-8.582-6.661-16.818-.171-3.348-.005-11.404 5.224-13.98 3.222-1.588 6.446-.567 8.542.527.107-1.917.055-4.109-.201-5.5-2.928-1.009-6.672-1.42-10.549.491-5.558 2.736-8.475 9.553-8.006 18.718.444 8.681 4.069 19.077 9.912 21.246 4.184 1.553 7.143-.119 9.301-1.341 1.382-.782 2.201-1.215 2.976-1.043 1.186.259 1.961.736 2.861 1.287 1.322.81 2.914 1.787 5.54 1.787.526 0 1.097-.039 1.713-.127 5.934-.848 9.859-8.567 11.555-15.506 1.912-7.836 1.853-18.546-4.607-23.166" fill="#FFF"/></g><g transform="translate(472)"><path d="M50.362 29.359c0-3.236 2.005-5.795 4.997-7.556a27.52 27.52 0 0 0-2.139-5.173c-3.372.88-6.094-.433-8.396-2.735-2.289-2.289-2.993-5.024-2.113-8.396a27.208 27.208 0 0 0-5.173-2.14c-1.76 3.007-4.929 4.997-8.179 4.997-3.236 0-6.419-1.99-8.179-4.997a27.208 27.208 0 0 0-5.173 2.14c.88 3.372.176 6.094-2.112 8.396-2.289 2.288-5.024 3.615-8.383 2.735a26.456 26.456 0 0 0-2.153 5.173c3.006 1.761 5.011 4.32 5.011 7.556 0 3.237-2.005 6.419-5.011 8.18a27.225 27.225 0 0 0 2.14 5.172c3.372-.88 6.094-.176 8.382 2.113 2.302 2.288 2.993 5.024 2.113 8.396a27.51 27.51 0 0 0 5.172 2.139c1.761-3.006 4.943-4.997 8.18-4.997 3.236 0 6.418 1.991 8.179 4.997a27.167 27.167 0 0 0 5.173-2.139c-.88-3.372-.176-6.094 2.112-8.396 2.289-2.289 5.024-3.616 8.396-2.735a27.983 27.983 0 0 0 2.14-5.173c-2.993-1.761-4.984-4.32-4.984-7.557zM29.359 44.824c-8.527 0-15.464-6.922-15.464-15.465 0-8.542 6.922-15.464 15.464-15.464 8.543 0 15.465 6.922 15.465 15.464 0 8.543-6.922 15.465-15.465 15.465z" fill="#0088CE"/></g><g transform="translate(590)"><path d="M50.363 29.359c0-3.236 2.004-5.795 4.997-7.556a27.59 27.59 0 0 0-2.14-5.173c-3.372.88-6.094-.433-8.396-2.735-2.288-2.289-2.993-5.024-2.112-8.396a27.235 27.235 0 0 0-5.173-2.14c-1.761 3.007-4.929 4.997-8.179 4.997-3.237 0-6.419-1.99-8.18-4.997a27.235 27.235 0 0 0-5.173 2.14c.881 3.372.176 6.094-2.112 8.396-2.289 2.288-5.024 3.615-8.382 2.735a26.334 26.334 0 0 0-2.153 5.173c3.006 1.761 5.01 4.32 5.01 7.556 0 3.237-2.004 6.419-5.01 8.18a27.157 27.157 0 0 0 2.139 5.172c3.372-.88 6.094-.176 8.382 2.113 2.302 2.288 2.993 5.024 2.113 8.396a27.492 27.492 0 0 0 5.173 2.139c1.76-3.006 4.943-4.997 8.179-4.997 3.236 0 6.419 1.991 8.179 4.997a27.14 27.14 0 0 0 5.173-2.139c-.88-3.372-.176-6.094 2.113-8.396 2.288-2.289 5.024-3.616 8.395-2.735a27.914 27.914 0 0 0 2.14-5.173c-2.993-1.761-4.983-4.32-4.983-7.557zM29.36 44.824c-8.527 0-15.465-6.922-15.465-15.465 0-8.542 6.922-15.464 15.465-15.464 8.542 0 15.464 6.922 15.464 15.464 0 8.543-6.922 15.465-15.464 15.465z" fill="#333"/></g><g transform="translate(708)"><path d="M50.362 29.359c0-3.236 2.004-5.795 4.997-7.556a27.523 27.523 0 0 0-2.14-5.173c-3.371.88-6.093-.433-8.395-2.735-2.289-2.289-2.993-5.024-2.113-8.396a27.208 27.208 0 0 0-5.173-2.14c-1.76 3.007-4.929 4.997-8.179 4.997-3.236 0-6.419-1.99-8.179-4.997a27.208 27.208 0 0 0-5.173 2.14c.88 3.372.176 6.094-2.113 8.396-2.288 2.288-5.023 3.615-8.382 2.735a26.395 26.395 0 0 0-2.153 5.173c3.006 1.761 5.01 4.32 5.01 7.556 0 3.237-2.004 6.419-5.01 8.18a27.16 27.16 0 0 0 2.14 5.172c3.372-.88 6.093-.176 8.382 2.113 2.302 2.288 2.993 5.024 2.112 8.396a27.547 27.547 0 0 0 5.173 2.139c1.761-3.006 4.943-4.997 8.179-4.997 3.237 0 6.419 1.991 8.18 4.997a27.167 27.167 0 0 0 5.173-2.139c-.881-3.372-.176-6.094 2.112-8.396 2.289-2.289 5.024-3.616 8.396-2.735a27.91 27.91 0 0 0 2.139-5.173c-2.992-1.761-4.983-4.32-4.983-7.557zM29.359 44.824c-8.527 0-15.465-6.922-15.465-15.465 0-8.542 6.923-15.464 15.465-15.464 8.543 0 15.465 6.922 15.465 15.464 0 8.543-6.922 15.465-15.465 15.465z" fill="#DDD"/></g><g transform="translate(826)"><path d="M50.362 29.359c0-3.236 2.004-5.795 4.997-7.556a27.523 27.523 0 0 0-2.14-5.173c-3.371.88-6.093-.433-8.395-2.735-2.289-2.289-2.993-5.024-2.113-8.396a27.208 27.208 0 0 0-5.173-2.14c-1.76 3.007-4.929 4.997-8.179 4.997-3.236 0-6.419-1.99-8.179-4.997a27.208 27.208 0 0 0-5.173 2.14c.88 3.372.176 6.094-2.113 8.396-2.288 2.288-5.023 3.615-8.382 2.735a26.395 26.395 0 0 0-2.153 5.173c3.006 1.761 5.01 4.32 5.01 7.556 0 3.237-2.004 6.419-5.01 8.18a27.16 27.16 0 0 0 2.14 5.172c3.372-.88 6.093-.176 8.382 2.113 2.302 2.288 2.993 5.024 2.112 8.396a27.547 27.547 0 0 0 5.173 2.139c1.761-3.006 4.943-4.997 8.179-4.997 3.237 0 6.419 1.991 8.18 4.997a27.167 27.167 0 0 0 5.173-2.139c-.881-3.372-.176-6.094 2.112-8.396 2.289-2.289 5.024-3.616 8.396-2.735a27.91 27.91 0 0 0 2.139-5.173c-2.992-1.761-4.983-4.32-4.983-7.557zM29.359 44.824c-8.527 0-15.465-6.922-15.465-15.465 0-8.542 6.923-15.464 15.465-15.464 8.543 0 15.465 6.922 15.465 15.464 0 8.543-6.922 15.465-15.465 15.465z" fill="#FFF"/></g><g transform="translate(944)"><g fill="#52BEDA"><path d="M.206 48.33c.703-7.284 6.737-11.462 16.727-11.462 1.647 0 3.177.124 4.607.347a14.913 14.913 0 0 0-2.135 4.655 29.65 29.65 0 0 0-2.472-.1c-7.417 0-11.506 2.336-11.947 6.906l-.178 2.184H0zm40.261-15.472c14.714 0 17.854 7.603 18.301 12.171l.117 5.831h-4.751l-.146-5.482c-.494-5.056-5.309-7.62-13.521-7.62-8.213 0-13.029 2.565-13.52 7.583l-.13 5.519h-4.821l.171-5.868c.443-4.531 3.584-12.134 18.3-12.134m-23.484-15.22c-1.22 0-5.2.351-5.2 4.869 0 3.808 2.187 6.571 5.2 6.571 3.013 0 5.2-2.763 5.2-6.571 0-4.518-3.98-4.869-5.2-4.869m0 16.22c-5.701 0-10-4.866-10-11.318 0-5.7 4.112-9.682 10-9.682s10 3.982 10 9.682c0 6.452-4.299 11.318-10 11.318m23.5-21.24c-2.136 0-5.72.693-5.72 5.335 0 4.14 2.406 7.145 5.72 7.145 3.315 0 5.721-3.005 5.721-7.145 0-4.642-3.584-5.335-5.721-5.335m0 17.24c-5.986 0-10.5-5.103-10.5-11.87 0-6.059 4.22-10.13 10.5-10.13s10.5 4.071 10.5 10.13c0 6.767-4.514 11.87-10.5 11.87"/></g></g><g transform="translate(1062)"><g fill="#333"><path d="M.206 48.33c.703-7.284 6.737-11.462 16.727-11.462 1.647 0 3.177.124 4.607.347a14.913 14.913 0 0 0-2.135 4.655 29.65 29.65 0 0 0-2.472-.1c-7.417 0-11.506 2.336-11.947 6.906l-.178 2.184H0zm40.261-15.472c14.714 0 17.854 7.603 18.301 12.171l.117 5.831h-4.751l-.146-5.482c-.494-5.056-5.309-7.62-13.521-7.62-8.213 0-13.029 2.565-13.52 7.583l-.13 5.519h-4.821l.171-5.868c.443-4.531 3.584-12.134 18.3-12.134m-23.484-15.22c-1.22 0-5.2.351-5.2 4.869 0 3.808 2.187 6.571 5.2 6.571 3.013 0 5.2-2.763 5.2-6.571 0-4.518-3.98-4.869-5.2-4.869m0 16.22c-5.701 0-10-4.866-10-11.318 0-5.7 4.112-9.682 10-9.682s10 3.982 10 9.682c0 6.452-4.299 11.318-10 11.318m23.5-21.24c-2.136 0-5.72.693-5.72 5.335 0 4.14 2.406 7.145 5.72 7.145 3.315 0 5.721-3.005 5.721-7.145 0-4.642-3.584-5.335-5.721-5.335m0 17.24c-5.986 0-10.5-5.103-10.5-11.87 0-6.059 4.22-10.13 10.5-10.13s10.5 4.071 10.5 10.13c0 6.767-4.514 11.87-10.5 11.87"/></g></g><g transform="translate(1180)"><g fill="#DDD"><path d="M.206 48.33c.703-7.284 6.737-11.462 16.728-11.462 1.646 0 3.176.124 4.607.347a14.937 14.937 0 0 0-2.136 4.655c-.777-.065-1.599-.1-2.471-.1-7.418 0-11.506 2.336-11.948 6.906l-.177 2.184H0zm40.262-15.472c14.713 0 17.853 7.603 18.301 12.171l.117 5.831h-4.751l-.146-5.482c-.495-5.056-5.31-7.62-13.521-7.62-8.214 0-13.03 2.565-13.521 7.583l-.13 5.519h-4.82l.17-5.868c.443-4.531 3.585-12.134 18.301-12.134m-23.484-15.22c-1.22 0-5.2.351-5.2 4.869 0 3.808 2.187 6.571 5.2 6.571 3.013 0 5.2-2.763 5.2-6.571 0-4.518-3.98-4.869-5.2-4.869m0 16.22c-5.701 0-10-4.866-10-11.318 0-5.7 4.112-9.682 10-9.682s10 3.982 10 9.682c0 6.452-4.299 11.318-10 11.318m23.5-21.24c-2.136 0-5.72.693-5.72 5.335 0 4.14 2.406 7.145 5.72 7.145 3.315 0 5.721-3.005 5.721-7.145 0-4.642-3.584-5.335-5.721-5.335m0 17.24c-5.986 0-10.5-5.103-10.5-11.87 0-6.059 4.22-10.13 10.5-10.13s10.5 4.071 10.5 10.13c0 6.767-4.514 11.87-10.5 11.87"/></g></g><g transform="translate(1298)"><g fill="#FFF"><path d="M.206 48.33c.703-7.284 6.737-11.462 16.727-11.462 1.647 0 3.177.124 4.607.347a14.913 14.913 0 0 0-2.135 4.655 29.65 29.65 0 0 0-2.472-.1c-7.417 0-11.506 2.336-11.947 6.906l-.178 2.184H0zm40.261-15.472c14.714 0 17.854 7.603 18.301 12.171l.117 5.831h-4.751l-.146-5.482c-.494-5.056-5.309-7.62-13.521-7.62-8.213 0-13.029 2.565-13.52 7.583l-.13 5.519h-4.821l.171-5.868c.443-4.531 3.584-12.134 18.3-12.134m-23.484-15.22c-1.22 0-5.2.351-5.2 4.869 0 3.808 2.187 6.571 5.2 6.571 3.013 0 5.2-2.763 5.2-6.571 0-4.518-3.98-4.869-5.2-4.869m0 16.22c-5.701 0-10-4.866-10-11.318 0-5.7 4.112-9.682 10-9.682s10 3.982 10 9.682c0 6.452-4.299 11.318-10 11.318m23.5-21.24c-2.136 0-5.72.693-5.72 5.335 0 4.14 2.406 7.145 5.72 7.145 3.315 0 5.721-3.005 5.721-7.145 0-4.642-3.584-5.335-5.721-5.335m0 17.24c-5.986 0-10.5-5.103-10.5-11.87 0-6.059 4.22-10.13 10.5-10.13s10.5 4.071 10.5 10.13c0 6.767-4.514 11.87-10.5 11.87"/></g></g><g transform="translate(1416)"><g fill="#4AA504"><path d="M51.533 16.376l-2.476 2.475-9.192-9.192 2.475-2.474c.28-.281.657-.435 1.06-.435.404 0 .781.154 1.062.435l7.071 7.07c.28.28.435.657.435 1.061 0 .404-.155.78-.435 1.06m3.535-5.657l-7.071-7.07A6.456 6.456 0 0 0 43.4 1.75a6.46 6.46 0 0 0-4.596 1.898l-6.01 6.01 16.263 16.264 6.011-6.01a6.453 6.453 0 0 0 1.9-4.596 6.457 6.457 0 0 0-1.9-4.597M23.565 44.344l-10.29 3.465-2.368-2.368 3.466-10.289 19.129-19.129-3.536-3.536-19.959 19.958L1.75 56.967l24.522-8.259L46.229 28.75l-3.535-3.535z"/><path d="M18.129 40.586a2.493 2.493 0 0 0 1.768.732c.639 0 1.279-.244 1.767-.732l18.201-18.2-3.535-3.535-18.201 18.2a2.49 2.49 0 0 0-.732 1.767c0 .641.244 1.28.732 1.768"/></g></g><g transform="translate(1534)"><g fill="#333"><path d="M51.534 16.376l-2.476 2.475-9.192-9.192 2.475-2.474c.28-.281.657-.435 1.06-.435.404 0 .781.154 1.062.435l7.071 7.07c.28.28.435.657.435 1.061 0 .404-.155.78-.435 1.06m3.535-5.657l-7.071-7.07a6.456 6.456 0 0 0-4.597-1.899 6.46 6.46 0 0 0-4.596 1.898l-6.01 6.01 16.263 16.264 6.011-6.01a6.453 6.453 0 0 0 1.9-4.596 6.457 6.457 0 0 0-1.9-4.597M23.566 44.344l-10.29 3.465-2.368-2.368 3.466-10.289 19.129-19.129-3.536-3.536-19.959 19.958-8.257 24.522 24.522-8.259L46.23 28.75l-3.535-3.535z"/><path d="M18.13 40.586a2.493 2.493 0 0 0 1.768.732c.639 0 1.279-.244 1.767-.732l18.201-18.2-3.535-3.535-18.201 18.2a2.49 2.49 0 0 0-.732 1.767c0 .641.244 1.28.732 1.768"/></g></g><g transform="translate(1652)"><g fill="#DDD"><path d="M51.533 16.376l-2.476 2.475-9.192-9.192 2.475-2.474c.28-.281.657-.435 1.06-.435.404 0 .781.154 1.062.435l7.071 7.07c.28.28.435.657.435 1.061 0 .404-.155.78-.435 1.06m3.535-5.657l-7.071-7.07A6.456 6.456 0 0 0 43.4 1.75a6.46 6.46 0 0 0-4.596 1.898l-6.01 6.01 16.263 16.264 6.011-6.01a6.453 6.453 0 0 0 1.9-4.596 6.457 6.457 0 0 0-1.9-4.597M23.565 44.344l-10.29 3.465-2.368-2.368 3.466-10.289 19.129-19.129-3.536-3.536-19.959 19.958L1.75 56.967l24.522-8.259L46.229 28.75l-3.535-3.535z"/><path d="M18.129 40.586a2.493 2.493 0 0 0 1.768.732c.639 0 1.279-.244 1.767-.732l18.201-18.2-3.535-3.535-18.201 18.2a2.49 2.49 0 0 0-.732 1.767c0 .641.244 1.28.732 1.768"/></g></g><g transform="translate(1770)"><g fill="#FFF"><path d="M51.533 16.376l-2.476 2.475-9.192-9.192 2.475-2.474c.28-.281.657-.435 1.06-.435.404 0 .781.154 1.062.435l7.071 7.07c.28.28.435.657.435 1.061 0 .404-.155.78-.435 1.06m3.535-5.657l-7.071-7.07A6.456 6.456 0 0 0 43.4 1.75a6.46 6.46 0 0 0-4.596 1.898l-6.01 6.01 16.263 16.264 6.011-6.01a6.453 6.453 0 0 0 1.9-4.596 6.457 6.457 0 0 0-1.9-4.597M23.565 44.344l-10.29 3.465-2.368-2.368 3.466-10.289 19.129-19.129-3.536-3.536-19.959 19.958L1.75 56.967l24.522-8.259L46.229 28.75l-3.535-3.535z"/><path d="M18.129 40.586a2.493 2.493 0 0 0 1.768.732c.639 0 1.279-.244 1.767-.732l18.201-18.2-3.535-3.535-18.201 18.2a2.49 2.49 0 0 0-.732 1.767c0 .641.244 1.28.732 1.768"/></g></g></svg>